<svg width="111" height="191" viewBox="0 0 111 191" fill="none" xmlns="http://www.w3.org/2000/svg">
<g clip-path="url(#clip0_151_1444)">
<path d="M100.432 -54.088L10.1924 -84.616L10.1924 -73.48L100.432 -42.952L100.432 -54.088Z" fill="url(#paint0_radial_151_1444)" fill-opacity="0.15"/>
<path d="M100.432 -30.3392L10.1924 -60.8672L10.1924 -49.7312L100.432 -19.2032V-30.3392Z" fill="url(#paint1_radial_151_1444)" fill-opacity="0.15"/>
<path d="M100.432 -6.59046L10.1924 -37.1185L10.1924 -25.9825L100.432 4.54554V-6.59046Z" fill="url(#paint2_radial_151_1444)" fill-opacity="0.15"/>
<path d="M100.432 17.1583L10.1924 -13.3697L10.1924 -2.23371L100.432 28.2943V17.1583Z" fill="url(#paint3_radial_151_1444)" fill-opacity="0.15"/>
<path d="M100.432 40.907L10.1924 10.379L10.1924 21.515L100.432 52.043V40.907Z" fill="url(#paint4_radial_151_1444)" fill-opacity="0.15"/>
<path d="M100.432 64.6558L10.1924 34.1278L10.1924 45.2638L100.432 75.7918V64.6558Z" fill="url(#paint5_radial_151_1444)" fill-opacity="0.15"/>
<path d="M100.432 88.4045L10.1924 57.8765L10.1924 69.0125L100.432 99.5405V88.4045Z" fill="url(#paint6_radial_151_1444)" fill-opacity="0.15"/>
<path d="M100.432 112.153L10.1924 81.6253L10.1924 92.7613L100.432 123.289L100.432 112.153Z" fill="url(#paint7_radial_151_1444)" fill-opacity="0.15"/>
<path d="M100.432 135.902L10.1924 105.374L10.1924 116.51L100.432 147.038V135.902Z" fill="url(#paint8_radial_151_1444)" fill-opacity="0.15"/>
<path d="M100.432 159.651L10.1924 129.123L10.1924 140.259L100.432 170.787V159.651Z" fill="url(#paint9_radial_151_1444)" fill-opacity="0.15"/>
<path d="M100.432 183.4L10.1924 152.872L10.1924 164.008L100.432 194.536V183.4Z" fill="url(#paint10_radial_151_1444)" fill-opacity="0.15"/>
<path d="M100.432 207.148L10.1924 176.62L10.1924 187.756L100.432 218.284V207.148Z" fill="url(#paint11_radial_151_1444)" fill-opacity="0.15"/>
<path d="M100.432 230.897L10.1924 200.369L10.1924 211.505L100.432 242.033V230.897Z" fill="url(#paint12_radial_151_1444)" fill-opacity="0.15"/>
<path d="M100.432 254.646L10.1924 224.118L10.1924 235.254L100.432 265.782V254.646Z" fill="url(#paint13_radial_151_1444)" fill-opacity="0.15"/>
<path d="M100.432 278.395L10.1924 247.867L10.1924 259.003L100.432 289.531V278.395Z" fill="url(#paint14_radial_151_1444)" fill-opacity="0.15"/>
</g>
<defs>
<radialGradient id="paint0_radial_151_1444" cx="0" cy="0" r="1" gradientUnits="userSpaceOnUse" gradientTransform="translate(55.3124 102.457) rotate(90.2537) scale(70.5435)">
<stop stop-color="white"/>
<stop offset="1" stop-color="white" stop-opacity="0"/>
</radialGradient>
<radialGradient id="paint1_radial_151_1444" cx="0" cy="0" r="1" gradientUnits="userSpaceOnUse" gradientTransform="translate(55.3124 102.457) rotate(90.2537) scale(70.5435)">
<stop stop-color="white"/>
<stop offset="1" stop-color="white" stop-opacity="0"/>
</radialGradient>
<radialGradient id="paint2_radial_151_1444" cx="0" cy="0" r="1" gradientUnits="userSpaceOnUse" gradientTransform="translate(55.3124 102.457) rotate(90.2537) scale(70.5435)">
<stop stop-color="white"/>
<stop offset="1" stop-color="white" stop-opacity="0"/>
</radialGradient>
<radialGradient id="paint3_radial_151_1444" cx="0" cy="0" r="1" gradientUnits="userSpaceOnUse" gradientTransform="translate(55.3124 102.457) rotate(90.2537) scale(70.5435)">
<stop stop-color="white"/>
<stop offset="1" stop-color="white" stop-opacity="0"/>
</radialGradient>
<radialGradient id="paint4_radial_151_1444" cx="0" cy="0" r="1" gradientUnits="userSpaceOnUse" gradientTransform="translate(55.3124 102.457) rotate(90.2537) scale(70.5435)">
<stop stop-color="white"/>
<stop offset="1" stop-color="white" stop-opacity="0"/>
</radialGradient>
<radialGradient id="paint5_radial_151_1444" cx="0" cy="0" r="1" gradientUnits="userSpaceOnUse" gradientTransform="translate(55.3124 102.457) rotate(90.2537) scale(70.5435)">
<stop stop-color="white"/>
<stop offset="1" stop-color="white" stop-opacity="0"/>
</radialGradient>
<radialGradient id="paint6_radial_151_1444" cx="0" cy="0" r="1" gradientUnits="userSpaceOnUse" gradientTransform="translate(55.3124 102.457) rotate(90.2537) scale(70.5435)">
<stop stop-color="white"/>
<stop offset="1" stop-color="white" stop-opacity="0"/>
</radialGradient>
<radialGradient id="paint7_radial_151_1444" cx="0" cy="0" r="1" gradientUnits="userSpaceOnUse" gradientTransform="translate(55.3124 102.457) rotate(90.2537) scale(70.5435)">
<stop stop-color="white"/>
<stop offset="1" stop-color="white" stop-opacity="0"/>
</radialGradient>
<radialGradient id="paint8_radial_151_1444" cx="0" cy="0" r="1" gradientUnits="userSpaceOnUse" gradientTransform="translate(55.3124 102.457) rotate(90.2537) scale(70.5435)">
<stop stop-color="white"/>
<stop offset="1" stop-color="white" stop-opacity="0"/>
</radialGradient>
<radialGradient id="paint9_radial_151_1444" cx="0" cy="0" r="1" gradientUnits="userSpaceOnUse" gradientTransform="translate(55.3124 102.457) rotate(90.2537) scale(70.5435)">
<stop stop-color="white"/>
<stop offset="1" stop-color="white" stop-opacity="0"/>
</radialGradient>
<radialGradient id="paint10_radial_151_1444" cx="0" cy="0" r="1" gradientUnits="userSpaceOnUse" gradientTransform="translate(55.3124 102.457) rotate(90.2537) scale(70.5435)">
<stop stop-color="white"/>
<stop offset="1" stop-color="white" stop-opacity="0"/>
</radialGradient>
<radialGradient id="paint11_radial_151_1444" cx="0" cy="0" r="1" gradientUnits="userSpaceOnUse" gradientTransform="translate(55.3124 102.457) rotate(90.2537) scale(70.5435)">
<stop stop-color="white"/>
<stop offset="1" stop-color="white" stop-opacity="0"/>
</radialGradient>
<radialGradient id="paint12_radial_151_1444" cx="0" cy="0" r="1" gradientUnits="userSpaceOnUse" gradientTransform="translate(55.3124 102.457) rotate(90.2537) scale(70.5435)">
<stop stop-color="white"/>
<stop offset="1" stop-color="white" stop-opacity="0"/>
</radialGradient>
<radialGradient id="paint13_radial_151_1444" cx="0" cy="0" r="1" gradientUnits="userSpaceOnUse" gradientTransform="translate(55.3124 102.457) rotate(90.2537) scale(70.5435)">
<stop stop-color="white"/>
<stop offset="1" stop-color="white" stop-opacity="0"/>
</radialGradient>
<radialGradient id="paint14_radial_151_1444" cx="0" cy="0" r="1" gradientUnits="userSpaceOnUse" gradientTransform="translate(55.3124 102.457) rotate(90.2537) scale(70.5435)">
<stop stop-color="white"/>
<stop offset="1" stop-color="white" stop-opacity="0"/>
</radialGradient>
<clipPath id="clip0_151_1444">
<rect width="111" height="191" fill="white"/>
</clipPath>
</defs>
</svg>
